<?xml version="1.0" standalone="no"?>
<!DOCTYPE svg PUBLIC "-//W3C//DTD SVG 20010904//EN"
 "http://www.w3.org/TR/2001/REC-SVG-20010904/DTD/svg10.dtd">
<svg version="1.0" xmlns="http://www.w3.org/2000/svg"
 width="1024.000000pt" height="1024.000000pt" viewBox="0 0 1024.000000 1024.000000"
 preserveAspectRatio="xMidYMid meet">
<metadata>
Created by potrace 1.14, written by Peter Selinger 2001-2017
</metadata>
<g transform="translate(0.000000,1024.000000) scale(0.100000,-0.100000)"
fill="#000000" stroke="none">
<path d="M0 5120 l0 -5120 5120 0 5120 0 0 5120 0 5120 -5120 0 -5120 0 0
-5120z m5510 2625 c457 -71 880 -256 1269 -553 118 -91 336 -305 438 -432 318
-393 525 -882 574 -1351 22 -218 18 -520 -12 -739 -39 -289 -178 -683 -333
-943 -437 -731 -1146 -1212 -1965 -1334 -88 -13 -184 -17 -396 -17 -246 -1
-296 2 -410 22 -449 78 -831 248 -1223 545 -484 368 -826 894 -981 1513 -44
178 -61 324 -68 579 -6 251 0 320 47 575 90 492 324 940 689 1324 75 78 288
261 382 329 373 265 800 433 1234 486 50 6 101 13 115 15 64 11 540 -3 640
-19z"/>
<path d="M4710 6355 l0 -355 254 0 c205 0 256 -3 265 -14 9 -10 11 -199 9
-737 -3 -711 -4 -725 -25 -780 -57 -152 -174 -254 -322 -281 -156 -29 -339 71
-408 223 l-28 61 -333 -5 c-184 -3 -336 -8 -339 -11 -8 -8 35 -188 64 -271
180 -506 664 -836 1188 -811 239 11 482 105 656 253 66 56 180 187 226 258 45
71 118 228 141 305 11 36 25 85 33 110 10 36 13 282 16 1228 l4 1182 -701 0
-700 0 0 -355z"/>
</g>
</svg>
